<svg xmlns="http://www.w3.org/2000/svg" viewBox="0 0 384 384" role="img" aria-labelledby="title desc">
  <title id="title">Spoon-Knife</title>
  <desc id="desc">A simple fork, spoon, and knife badge.</desc>
  <rect width="384" height="384" rx="34" fill="#f6f8fa"/>
  <circle cx="192" cy="192" r="143" fill="#ffffff" stroke="#d0d7de" stroke-width="8"/>
  <path d="M139 77c8 0 14 6 14 14v74c0 24-13 45-32 56v86c0 12-10 22-22 22s-22-10-22-22v-86c-19-11-32-32-32-56V91c0-8 6-14 14-14s14 6 14 14v68h13V91c0-8 6-14 14-14s14 6 14 14v68h13V91c0-8 6-14 14-14z" fill="#24292f"/>
  <path d="M218 91c0-8 6-14 14-14 39 0 70 36 70 81 0 31-15 58-37 72v77c0 12-10 22-22 22s-22-10-22-22v-77c-22-14-37-41-37-72 0-45 31-81 70-81z" fill="#57606a"/>
  <path d="M287 76c26 19 43 52 43 90 0 45-24 83-58 99v43c0 12-10 22-22 22s-22-10-22-22v-63c0-9 5-16 13-20 24-11 41-33 41-59 0-26-14-49-35-61 8-12 22-23 40-29z" fill="#0969da"/>
</svg>
